<svg width="21" height="20" viewBox="0 0 21 20" fill="none" xmlns="http://www.w3.org/2000/svg">
<path d="M14.05 8.49977C14.05 9.53812 13.7421 10.5532 13.1652 11.4165C12.5884 12.2799 11.7684 12.9528 10.8091 13.3501C9.84979 13.7475 8.79419 13.8515 7.77579 13.6489C6.75739 13.4463 5.82193 12.9463 5.08771 12.2121C4.35348 11.4779 3.85347 10.5424 3.65089 9.524C3.44832 8.5056 3.55229 7.45 3.94965 6.49068C4.34701 5.53137 5.01992 4.71143 5.88327 4.13456C6.74663 3.55768 7.76167 3.24977 8.80002 3.24977C10.1924 3.24977 11.5278 3.8029 12.5123 4.78746C13.4969 5.77203 14.05 7.10739 14.05 8.49977ZM19.8306 19.5304C19.761 19.6001 19.6783 19.6554 19.5872 19.6932C19.4962 19.7309 19.3986 19.7504 19.3 19.7504C19.2015 19.7504 19.1039 19.7309 19.0128 19.6932C18.9218 19.6554 18.839 19.6001 18.7694 19.5304L14.0763 14.8363C12.4442 16.1941 10.3515 16.8705 8.23345 16.7247C6.11542 16.5789 4.13513 15.6222 2.70448 14.0536C1.27382 12.485 0.502954 10.4252 0.552211 8.30273C0.601468 6.18027 1.46706 4.15849 2.96894 2.65793C4.47082 1.15738 6.49336 0.293579 8.61587 0.246198C10.7384 0.198817 12.7975 0.971507 14.3648 2.40354C15.9321 3.83558 16.8871 5.81672 17.031 7.93488C17.1749 10.053 16.4967 12.1451 15.1375 13.776L19.8306 18.4691C19.9004 18.5388 19.9557 18.6215 19.9934 18.7126C20.0312 18.8036 20.0506 18.9012 20.0506 18.9998C20.0506 19.0983 20.0312 19.1959 19.9934 19.287C19.9557 19.378 19.9004 19.4607 19.8306 19.5304ZM8.80002 15.2498C10.135 15.2498 11.4401 14.8539 12.5501 14.1122C13.6601 13.3705 14.5253 12.3163 15.0362 11.0829C15.5471 9.84948 15.6808 8.49228 15.4203 7.18291C15.1599 5.87354 14.517 4.67081 13.573 3.7268C12.629 2.7828 11.4262 2.13992 10.1169 1.87947C8.8075 1.61902 7.4503 1.75269 6.2169 2.26359C4.9835 2.77448 3.9293 3.63964 3.1876 4.74967C2.4459 5.8597 2.05002 7.16475 2.05002 8.49977C2.052 10.2894 2.7638 12.0051 4.02924 13.2706C5.29468 14.536 7.01042 15.2478 8.80002 15.2498Z" fill="#63B1FF"/>
</svg>
