<svg width="18" height="11" viewBox="0 0 18 11" fill="none" xmlns="http://www.w3.org/2000/svg">
<path d="M17.296 2.79586L9.79596 10.2959C9.69144 10.4007 9.56725 10.484 9.4305 10.5407C9.29376 10.5975 9.14715 10.6267 8.99908 10.6267C8.85102 10.6267 8.70441 10.5975 8.56766 10.5407C8.43092 10.484 8.30672 10.4007 8.20221 10.2959L0.702208 2.79586C0.490864 2.58451 0.372131 2.29787 0.372131 1.99898C0.372131 1.7001 0.490864 1.41345 0.702208 1.20211C0.913552 0.990763 1.2002 0.872031 1.49908 0.872031C1.79797 0.872031 2.08461 0.990763 2.29596 1.20211L9.00002 7.90617L15.7041 1.20117C15.9154 0.989826 16.2021 0.871094 16.501 0.871094C16.7998 0.871094 17.0865 0.989826 17.2978 1.20117C17.5092 1.41252 17.6279 1.69916 17.6279 1.99805C17.6279 2.29693 17.5092 2.58358 17.2978 2.79492L17.296 2.79586Z" fill="#8C8C8C"/>
</svg>
